<?xml version="1.0" encoding="UTF-8" standalone="no"?>
<svg
   xmlns:dc="http://purl.org/dc/elements/1.1/"
   xmlns:cc="http://creativecommons.org/ns#"
   xmlns:rdf="http://www.w3.org/1999/02/22-rdf-syntax-ns#"
   xmlns:svg="http://www.w3.org/2000/svg"
   xmlns="http://www.w3.org/2000/svg"
   viewBox="0 0 1365.3333 1365.3333"
   height="1365.3333"
   width="1365.3333"
   xml:space="preserve"
   id="svg2"
   version="1.1"><metadata
     id="metadata8"><rdf:RDF><cc:Work
         rdf:about=""><dc:format>image/svg+xml</dc:format><dc:type
           rdf:resource="http://purl.org/dc/dcmitype/StillImage" /></cc:Work></rdf:RDF></metadata><defs
     id="defs6"><clipPath
       id="clipPath18"
       clipPathUnits="userSpaceOnUse"><path
         id="path16"
         d="M 0,1023.998 H 1023.998 V 0 H 0 Z" /></clipPath></defs><g
     transform="matrix(1.3333333,0,0,-1.3333333,0,1365.3333)"
     id="g10"><g
       id="g12"><g
         clip-path="url(#clipPath18)"
         id="g14"><g
           transform="translate(1023.998,511.9994)"
           id="g20"><path
             id="path22"
             style="fill:#1977f3;fill-opacity:1;fill-rule:nonzero;stroke:none"
             d="m 0,0 c 0,282.748 -229.251,511.999 -511.999,511.999 -282.748,0 -511.999,-229.251 -511.999,-511.999 0,-255.532 187.203,-467.358 432.006,-505.808 v 357.774 H -722.026 V 0 h 130.034 v 112.825 c 0,128.306 76.465,199.227 193.394,199.227 56.018,0 114.626,-10.008 114.626,-10.008 V 176.042 h -64.585 c -63.577,0 -83.449,-39.456 -83.449,-79.993 V 0 H -290.02 L -312.7,-148.034 H -432.006 V -505.808 C -187.202,-467.431 0,-255.604 0,0" /></g><g
           transform="translate(711.2979,363.9652)"
           id="g24"><path
             id="path26"
             style="fill:#fefefe;fill-opacity:1;fill-rule:nonzero;stroke:none"
             d="m 0,0 22.681,148.034 h -141.987 v 96.049 c 0,40.465 19.801,79.994 83.45,79.994 h 64.585 v 126.001 c 0,0 -58.609,10.008 -114.626,10.008 -116.93,0 -193.395,-70.849 -193.395,-199.227 V 148.034 H -409.326 V 0 h 130.034 v -357.773 c 26.064,-4.104 52.777,-6.192 79.993,-6.192 27.217,0 53.929,2.16 79.993,6.192 l 0,357.773 z" /></g></g></g></g></svg>