<?xml version="1.0" encoding="UTF-8" standalone="no"?>
<svg
   xmlns:dc="http://purl.org/dc/elements/1.1/"
   xmlns:cc="http://creativecommons.org/ns#"
   xmlns:rdf="http://www.w3.org/1999/02/22-rdf-syntax-ns#"
   xmlns:svg="http://www.w3.org/2000/svg"
   xmlns="http://www.w3.org/2000/svg"
   viewBox="0 0 666.66669 666.66669"
   height="666.66669"
   width="666.66669"
   xml:space="preserve"
   id="svg2"
   version="1.1"><metadata
     id="metadata8"><rdf:RDF><cc:Work
         rdf:about=""><dc:format>image/svg+xml</dc:format><dc:type
           rdf:resource="http://purl.org/dc/dcmitype/StillImage" /></cc:Work></rdf:RDF></metadata><defs
     id="defs6"><clipPath
       id="clipPath18"
       clipPathUnits="userSpaceOnUse"><path
         id="path16"
         d="M 0,500 H 500 V 0 H 0 Z" /></clipPath></defs><g
     transform="matrix(1.3333333,0,0,-1.3333333,0,666.66667)"
     id="g10"><g
       id="g12"><g
         clip-path="url(#clipPath18)"
         id="g14"><g
           transform="translate(372.4658,250)"
           id="g20"><path
             id="path22"
             style="fill:#3284ff;fill-opacity:1;fill-rule:nonzero;stroke:none"
             d="m 0,0 c 0,8.088 -0.745,15.988 -2.121,23.648 h -9.703 -37.852 -70.256 v -47.296 h 71.299 c -4.626,-16.372 -14.354,-30.373 -27.363,-40.04 l 36.789,-29.273 C -14.958,-70.082 0,-36.917 0,0" /></g><g
           transform="translate(254.0713,324.3242)"
           id="g24"><path
             id="path26"
             style="fill:#ff3424;fill-opacity:1;fill-rule:nonzero;stroke:none"
             d="M 0,0 C 17.925,0 34.071,-6.489 46.578,-17.294 L 80.626,17.24 C 59.365,37.977 30.662,50.676 -1.537,50.676 c -47.989,0 -90.779,-28.187 -111.606,-69.213 l 41.798,-31.867 C -60.659,-21.024 -32.26,0 0,0" /></g><g
           transform="translate(141.7104,192.7031)"
           id="g28"><path
             id="path30"
             style="fill:#ffbb00;fill-opacity:1;fill-rule:nonzero;stroke:none"
             d="M 0,0 40.305,32.064 C 37.851,39.481 36.5,47.387 36.5,55.607 c 0,8.988 1.606,17.607 4.516,25.61 L -0.782,113.084 C -9.308,96.288 -14.176,77.354 -14.176,57.297 -14.176,36.638 -9.01,17.169 0,0" /></g><g
           transform="translate(182.0156,224.7676)"
           id="g32"><path
             id="path34"
             style="fill:#26b14c;fill-opacity:1;fill-rule:nonzero;stroke:none"
             d="m 0,0 -40.305,-32.064 c 21.103,-40.205 63.426,-67.704 110.824,-67.704 31.474,0 59.616,12.125 80.724,32.039 l -36.789,29.274 C 102.612,-47.254 88.061,-52.47 72.056,-52.47 39.044,-52.47 10.082,-30.458 0,0" /></g></g></g></g></svg>